<svg width="85" height="41" fill="none" xmlns="http://www.w3.org/2000/svg"><path d="M0 41 42.5 0 85 41H0Zm71.175-.617h12l-5.996-5.772-6.004 5.772Zm-13.869 0h12L63.31 34.61l-6.004 5.772Zm-13.87 0h12l-6.002-5.772-5.999 5.772Zm-13.896 0h12.05l-6.024-5.772-6.026 5.772Zm-13.938 0h12l-5.995-5.772-6.005 5.772Zm-13.79 0h12.1l-5.994-5.77-6.105 5.77Zm34.357-6.357 6.28 6.16 6.334-6.107-6.33-6.122-6.284 6.07Zm28.128-.386a.498.498 0 0 0-.093.648v.128l.09.049 4.64 4.553 1.364 1.151 6.319-6.091-6.186-5.953h-.363l-5.771 5.515Zm-42 .388 6.331 6.105 6.33-6.105-6.33-6.122-6.332 6.122Zm27.736 0 6.429 6.103 6.33-6.103-6.33-6.12-6.429 6.12Zm-41.606 0 6.328 6.103.445-.42 5.428-5.23a.581.581 0 0 0-.026-.947c-1.076-1.012-2.152-2.06-3.23-3.107l-1.614-1.56-.999-.961-6.332 6.122Zm6.935-6.689 6.427 6.19.194-.342 5.652-5.46a.498.498 0 0 0 .1-.612v-.13l-.1-.085-5.496-5.244a1.489 1.489 0 0 0-.306-.243l-.2-.12-6.271 6.046Zm28.337-.355a.532.532 0 0 0-.206.361.597.597 0 0 0 .19.444l5.212 5.062c.134.145.3.304.5.478l.211.193 6.326-6.099-6.732-6.444v.705l-5.501 5.3Zm13.366.4 6.332 6.106 6.33-6.107-6.33-6.104-6.332 6.104Zm-27.833 0 6.324 6.098.513-.458.828-.79c1.48-1.407 3.01-2.862 4.519-4.386a.565.565 0 0 0 .247-.45.608.608 0 0 0-.241-.498 510.254 510.254 0 0 1-4.996-4.808l-.867-.808-6.327 6.1Zm-6.935-6.738 6.332 6.103 6.33-6.102-6.33-6.125-6.332 6.124Zm13.871 0 6.284 6.09 6.33-6.104-6.284-6.107-6.33 6.121Zm13.869 0 6.332 6.088 6.33-6.106-6.332-6.088-6.33 6.107ZM49.244 8.08a.285.285 0 0 1-.07.075 473.306 473.306 0 0 1-5.588 5.397.486.486 0 0 0-.105.598v.13l.1.092 5.427 5.245.48.412 6.318-6.075-6.36-6.196-.202.322ZM29.23 13.943l6.317 6.09.4-.325 5.562-5.36a.513.513 0 0 0 .1-.65v-.13l-.1-.079-5.871-5.63-6.408 6.084Zm7.325-7.024a.504.504 0 0 0-.018.687l5.914 5.688 6.332-6.107-6.116-5.866h-.364l-5.748 5.598Z" fill="#9D8665"/></svg>